<svg xmlns="http://www.w3.org/2000/svg" width="528" height="170" viewBox="0 0 528 170">
    <g fill="none" fill-rule="evenodd">
        <g>
            <path fill="#FFF" d="M203.144 18.284c0 5.846-4.72 10.585-10.541 10.585-5.822 0-10.541-4.739-10.541-10.585 0-5.846 4.72-10.586 10.54-10.586 5.823 0 10.542 4.74 10.542 10.586M183.552 94.018L201.884 94.018 201.884 31.324 183.552 31.324zM179.427 76.955c-9.468.032-9.773.052-10.083.052-4.432 0-8.025-3.296-8.025-7.363 0-.214-.111-2.534-.225-5.056V47.624h17.187v-16.29h-17.187V9.922h-18.333v59.261h.026c-.008.154-.026.305-.026.46 0 13.472 11.902 24.393 26.583 24.393.31 0 .61-.032 10.083-.042V76.955zM307.754 78.495c-8.453 0-15.307-6.882-15.307-15.371 0-8.49 6.854-15.372 15.307-15.372 8.454 0 15.308 6.882 15.308 15.372 0 8.489-6.854 15.371-15.308 15.371m-.43-47.957c-17.556 0-31.789 14.409-31.789 32.183 0 17.773 14.233 32.182 31.79 32.182 17.556 0 31.789-14.409 31.789-32.182 0-17.774-14.233-32.183-31.79-32.183M105.655 79.09c-8.652 0-15.667-7.044-15.667-15.733s7.015-15.733 15.667-15.733c8.652 0 15.666 7.044 15.666 15.733s-7.014 15.732-15.666 15.732zm31.67 14.85V63.078c0-16.702-12.591-31.04-29.175-32.304-1.225-.093-2.468-.119-3.726-.072-17.792.66-31.902 15.926-31.29 33.794.598 17.486 14.93 30.706 32.52 30.706 5.99 0 10.456-2.152 15.607-5.884v4.622h16.064zM254.67 64.83c-.342 3.667-1.986 6.947-4.45 9.397-2.742 2.617-6.442 4.234-10.525 4.234-8.448 0-15.297-6.877-15.297-15.36 0-.997.103-1.967.283-2.91 1.464-6.895 7.559-12.068 14.861-12.068 7.91 0 14.404 6.069 15.128 13.822v2.885zm17.265-1.728c0-15.259-10.496-28.787-25.4-31.76-.458-.09-.92-.173-1.386-.245-1.908-.361-3.873-.56-5.884-.56-17.544 0-31.767 14.4-31.767 32.16 0 1.783.15 3.53.425 5.233 2.13 15.737 15.229 27.1 31.657 27.1 2.548 0 4.914-.374 7.116-1.067 2.823-.685 5.5-1.749 7.974-3.14v3.768c0 2.45-.687 4.882-2.128 6.859-1.96 2.688-5.457 5.086-11.702 5.086 0 0-10.54 0-13.29-5.523h-17.417s2.75 21.171 32.54 21.171c0 0 6.03-.333 12.71-2.858 10.028-3.79 16.552-13.576 16.552-24.337V63.102zM25.85 56.944l.323-1.353c1.515-6.334 7.285-10.427 14.027-10.427 6.907 0 12.747 4.114 13.909 10.48l.237 1.3H25.85zm37.196-16.107C57.691 34.094 49.793 30.53 40.207 30.53c-17.423 0-30.561 13.861-30.561 32.242v.22c0 18.555 13.549 32.02 32.216 32.02 10.549 0 18.155-3.894 24.322-11.574l.796-.99-11.448-9.302-1.963 1.947c-4.428 4.129-7.387 4.886-12.63 4.886-5.847 0-12.362-4.315-14.193-10.114h42.033l1.238-.02.088-1.238c.11-1.542.222-3.135.222-4.506 0-9.092-2.586-17.353-7.28-23.264z" transform="translate(23 26)"/>
            <path fill="#F5831F" d="M9.48 45.445C14.73 35.235 24.807 27.94 36.685 26.61c3.543-1.379 6.06-4.826 6.06-8.872 0-5.258-4.244-9.52-9.48-9.52-.254 0-.503.018-.751.038C31.192 3.496 26.854 0 21.693 0c-5.186 0-9.54 3.532-10.838 8.329-.45-.066-.906-.112-1.374-.112C4.245 8.217 0 12.48 0 17.738c0 5.259 4.245 9.521 9.48 9.521v18.186z" transform="translate(23 26)"/>
        </g>
        <path fill="#EE2C30" d="M502.956 92.108c-.525 4.413-5.778 7.66-7.209 11.68-1.476 4.15.51 9.975-1.807 13.602-2.353 3.688-8.497 4.341-11.583 7.381-3.1 3.056-3.839 9.18-7.538 11.473-3.683 2.284-9.5.231-13.64 1.654-4.073 1.4-7.39 6.606-11.777 7.07-4.247.449-8.582-3.921-13.002-4.445-4.42-.523-9.66 2.71-13.684 1.28-4.155-1.475-6.159-7.312-9.791-9.625-3.693-2.352-9.829-1.716-12.874-4.798-3.06-3.095-2.34-9.22-4.639-12.916-2.286-3.677-8.106-5.75-9.53-9.884-1.402-4.069 1.896-9.267 1.432-13.647-.45-4.242-4.794-8.627-4.27-13.041.525-4.413 5.778-7.662 7.209-11.68 1.477-4.15-.51-9.975 1.807-13.602 2.353-3.687 8.497-4.341 11.583-7.382 3.1-3.056 3.838-9.178 7.538-11.473 3.683-2.284 9.5-.231 13.64-1.653 4.073-1.4 7.39-6.606 11.776-7.07 4.248-.448 8.582 3.921 13.003 4.444 4.42.524 9.659-2.71 13.684-1.28 4.155 1.475 6.159 7.313 9.791 9.626 3.693 2.35 9.829 1.715 12.874 4.797 3.06 3.096 2.34 9.221 4.639 12.917 2.286 3.677 8.106 5.75 9.53 9.884 1.402 4.068-1.896 9.266-1.432 13.647.45 4.24 4.794 8.626 4.27 13.04"/>
        <g fill="#FEFEFE">
            <path d="M12.89 12.945c-1.131 0-2.007-.347-2.623-1.041-.616-.694-.924-1.628-.924-2.801v-6.36h2.308v5.665c0 .78.185 1.382.554 1.803.37.422.891.633 1.567.633.663 0 1.2-.217 1.614-.651.413-.435.619-1.042.619-1.822V2.744h2.308v9.993h-2.308v-1.568c-.328.483-.736.9-1.227 1.25-.49.35-1.12.526-1.887.526M26.356 10.958c.391 0 .76-.076 1.108-.228.346-.15.649-.362.908-.634.258-.27.463-.605.615-1.002.15-.398.227-.842.227-1.335v-.037c0-.48-.076-.918-.227-1.316-.152-.397-.357-.735-.615-1.013-.26-.277-.562-.492-.908-.643-.348-.151-.717-.227-1.108-.227-.39 0-.763.076-1.116.227-.353.151-.663.369-.928.653-.265.284-.476.622-.634 1.013-.158.39-.236.826-.236 1.306v.037c0 .48.078.918.236 1.316.158.397.369.734.634 1.012s.575.492.928.643c.353.152.725.228 1.116.228zM21.19 2.744h2.308V4.41c.365-.53.819-.975 1.36-1.335.54-.36 1.215-.539 2.02-.539.592 0 1.164.114 1.718.34.554.228 1.048.562 1.483 1.004.433.441.783.984 1.048 1.627.263.644.396 1.382.396 2.215v.037c0 .833-.13 1.571-.387 2.214-.258.644-.605 1.187-1.039 1.628-.434.442-.931.776-1.491 1.003-.56.227-1.136.34-1.728.34-.818 0-1.498-.176-2.039-.529-.54-.353-.988-.764-1.34-1.23v4.58H21.19V2.744zM42.916 12.907c-.417 0-.804-.051-1.16-.152-.355-.1-.664-.265-.925-.492-.261-.227-.461-.526-.601-.899-.14-.372-.21-.835-.21-1.39V4.711h-1.268V2.744h1.268V0h2.31v2.744h2.687v1.968h-2.688v4.902c0 .442.107.76.322.956.214.195.517.293.908.293.492 0 .965-.114 1.419-.341v1.874c-.29.164-.6.29-.927.378-.328.089-.706.133-1.135.133M52.094 10.977c.464 0 .88-.086 1.25-.256s.687-.4.95-.69c.263-.29.465-.628.603-1.013.138-.385.206-.792.206-1.221v-.038c0-.441-.075-.858-.225-1.249-.15-.39-.36-.731-.63-1.022-.27-.29-.59-.52-.96-.69-.37-.171-.78-.256-1.231-.256-.452 0-.863.085-1.233.256-.37.17-.686.397-.95.68-.263.285-.463.622-.601 1.013-.138.392-.206.801-.206 1.23v.038c0 .442.074.855.225 1.24.15.385.36.726.63 1.022.27.296.59.53.959.7.37.17.775.256 1.213.256m-.037 1.987c-.758 0-1.461-.136-2.111-.407-.65-.272-1.21-.64-1.684-1.108-.474-.466-.842-1.015-1.107-1.646-.265-.63-.398-1.3-.398-2.006v-.038c0-.72.136-1.394.407-2.025.271-.63.643-1.183 1.117-1.656.473-.473 1.035-.848 1.685-1.126.649-.277 1.358-.416 2.128-.416s1.479.135 2.129.407c.65.271 1.212.643 1.685 1.116.473.474.841 1.022 1.106 1.647.265.624.399 1.296.399 2.016v.037c0 .707-.136 1.376-.407 2.006-.272.631-.644 1.183-1.117 1.656-.473.474-1.038.85-1.694 1.126-.656.278-1.37.417-2.138.417M59.564 53.98c.309 0 .587-.056.834-.17.247-.113.458-.266.633-.46.176-.194.31-.419.401-.676.092-.256.138-.528.138-.814v-.025c0-.295-.05-.572-.15-.833-.1-.26-.24-.488-.42-.682-.18-.193-.393-.347-.64-.46-.247-.114-.52-.17-.822-.17-.3 0-.575.056-.821.17-.247.113-.458.264-.634.454-.175.19-.31.415-.401.675-.092.261-.138.535-.138.82v.026c0 .294.05.57.15.827.1.256.24.484.42.681.18.198.394.354.64.468.247.113.517.17.81.17m-.026 1.325c-.504 0-.974-.09-1.407-.271-.434-.181-.808-.427-1.124-.739-.315-.31-.561-.677-.738-1.098-.177-.42-.265-.867-.265-1.338v-.025c0-.48.09-.93.272-1.35.18-.421.429-.79.744-1.106.316-.314.69-.565 1.124-.75.433-.185.906-.278 1.42-.278.513 0 .986.09 1.42.271.433.181.808.43 1.123.745.316.316.562.682.739 1.098.176.417.265.865.265 1.345v.025c0 .471-.09.917-.272 1.338-.181.42-.43.789-.745 1.104-.315.316-.692.566-1.13.752-.437.184-.912.277-1.426.277M65.004 49.803h-.845v-1.275h.845v-.48c0-.74.183-1.292.547-1.654.357-.353.86-.53 1.51-.53.27 0 .501.018.695.05.193.035.374.077.543.127v1.288c-.152-.05-.297-.09-.436-.12s-.292-.044-.46-.044c-.59 0-.884.336-.884 1.01v.366h1.767v1.262h-1.742v5.352h-1.54v-5.352zM69.75 49.803h-.845v-1.275h.845v-.48c0-.74.183-1.292.547-1.654.357-.353.86-.53 1.51-.53.27 0 .501.018.695.05.193.035.374.077.543.127v1.288c-.152-.05-.297-.09-.436-.12s-.292-.044-.46-.044c-.59 0-.884.336-.884 1.01v.366h1.767v1.262H71.29v5.352h-1.54v-5.352zM10.912 55.213c-2.293 0-4.331-.414-6.114-1.242C3.014 53.144 1.415 52.057 0 50.71l3.227-3.777c1.189 1.104 2.413 1.975 3.673 2.611 1.258.638 2.582.956 3.97.956 1.782 0 3.211-.47 4.287-1.407 1.076-.938 1.614-2.189 1.614-3.752v-.086c0-1.534-.573-2.742-1.72-3.623-1.146-.881-2.626-1.322-4.437-1.322-1.076 0-2.066.127-2.972.382-.906.254-1.74.567-2.505.934l-3.141-2.08.849-14.564h17.779v4.628H7.345l-.467 6.964c.707-.255 1.423-.46 2.144-.616.722-.155 1.578-.234 2.569-.234 1.444 0 2.796.192 4.058.574 1.262.382 2.357.962 3.284 1.74.927.78 1.662 1.756 2.204 2.93.542 1.175.814 2.54.814 4.097v.085c0 1.528-.264 2.908-.792 4.14-.529 1.23-1.278 2.286-2.248 3.163-.97.878-2.136 1.557-3.496 2.038-1.36.48-2.862.722-4.503.722M39.826 50.5c1.16 0 2.2-.276 3.12-.828.92-.552 1.705-1.302 2.357-2.25.65-.949 1.153-2.066 1.507-3.354.354-1.288.53-2.668.53-4.14v-.085c0-1.472-.184-2.852-.551-4.14-.369-1.287-.878-2.413-1.529-3.375-.651-.962-1.45-1.726-2.399-2.293-.948-.566-1.988-.849-3.12-.849-1.161 0-2.202.276-3.121.828-.92.552-1.706 1.302-2.356 2.25-.652.948-1.154 2.066-1.508 3.355-.354 1.288-.53 2.667-.53 4.14v.084c0 1.472.176 2.852.53 4.14.354 1.288.863 2.413 1.529 3.375.665.963 1.465 1.727 2.399 2.292.934.567 1.98.85 3.142.85m-.085 4.713c-1.954 0-3.722-.397-5.308-1.19-1.585-.791-2.944-1.881-4.075-3.268-1.133-1.387-2.004-3.008-2.612-4.862-.609-1.853-.913-3.842-.913-5.965v-.085c0-2.123.312-4.119.934-5.987.623-1.868 1.5-3.495 2.633-4.882 1.131-1.387 2.497-2.484 4.097-3.291 1.599-.807 3.376-1.21 5.329-1.21 1.953 0 3.72.397 5.307 1.189 1.585.792 2.936 1.883 4.055 3.269 1.118 1.387 1.988 3.008 2.61 4.862.623 1.854.935 3.842.935 5.965v.085c0 2.123-.312 4.118-.934 5.986-.623 1.868-1.5 3.497-2.633 4.883-1.132 1.387-2.498 2.484-4.097 3.29-1.6.807-3.375 1.21-5.328 1.21M70.591 38.806c.534 0 .954-.225 1.26-.676.305-.45.458-.988.458-1.614v-.046c0-.641-.164-1.19-.493-1.648-.328-.458-.752-.688-1.27-.688-.535 0-.955.226-1.26.676-.306.45-.458.989-.458 1.614v.046c0 .657.164 1.21.492 1.66.328.45.752.676 1.271.676zm-.046 1.763c-.565 0-1.076-.107-1.534-.32-.458-.214-.85-.508-1.18-.882-.328-.374-.583-.805-.766-1.294-.183-.488-.275-1.008-.275-1.557v-.046c0-.55.092-1.072.275-1.568.183-.496.442-.931.778-1.305.336-.375.736-.672 1.202-.894.466-.22.981-.332 1.546-.332.565 0 1.076.107 1.534.321.458.214.851.508 1.18.881.328.375.584.806.767 1.294.183.489.275 1.008.275 1.557v.046c0 .55-.092 1.073-.275 1.569-.183.496-.443.931-.779 1.305-.336.374-.737.672-1.202.893-.466.221-.981.332-1.546.332zm-9.64-9.96c.534 0 .954-.226 1.26-.676.304-.45.457-.989.457-1.615v-.045c0-.642-.164-1.191-.492-1.65-.328-.457-.752-.686-1.27-.686-.535 0-.955.225-1.26.675-.306.45-.458.989-.458 1.615v.046c0 .656.164 1.21.492 1.66.328.45.752.675 1.271.675zm9.548-6.252h2.268L60.997 40.386H58.73l11.723-16.03zM60.86 32.37c-.565 0-1.076-.106-1.534-.32-.458-.214-.851-.508-1.18-.882-.328-.374-.583-.805-.766-1.294-.183-.488-.275-1.007-.275-1.557v-.045c0-.55.092-1.073.275-1.569.183-.496.442-.931.778-1.305.336-.374.736-.672 1.202-.894.466-.22.98-.331 1.546-.331.565 0 1.076.107 1.534.32.458.214.851.508 1.18.882.328.374.584.805.767 1.293.183.49.275 1.008.275 1.558v.046c0 .549-.092 1.072-.275 1.568-.183.496-.443.931-.779 1.305-.336.375-.737.672-1.202.893-.466.222-.981.332-1.546.332z" transform="translate(408 54)"/>
        </g>
    </g>
</svg>
